<svg xmlns="http://www.w3.org/2000/svg" viewBox="0 0 34 34" shape-rendering="crispEdges"><rect x="13" y="1" width="1" height="1" fill="#262233"/><rect x="20" y="1" width="1" height="1" fill="#262233"/><rect x="13" y="2" width="2" height="1" fill="#262233"/><rect x="19" y="2" width="2" height="1" fill="#262233"/><rect x="12" y="3" width="4" height="1" fill="#262233"/><rect x="18" y="3" width="4" height="1" fill="#262233"/><rect x="7" y="4" width="2" height="1" fill="#262233"/><rect x="12" y="4" width="1" height="1" fill="#262233"/><rect x="13" y="4" width="2" height="1" fill="#ffd23f"/><rect x="15" y="4" width="4" height="1" fill="#262233"/><rect x="19" y="4" width="2" height="1" fill="#ffd23f"/><rect x="21" y="4" width="1" height="1" fill="#262233"/><rect x="25" y="4" width="2" height="1" fill="#262233"/><rect x="7" y="5" width="4" height="1" fill="#262233"/><rect x="12" y="5" width="1" height="1" fill="#262233"/><rect x="13" y="5" width="8" height="1" fill="#ffd23f"/><rect x="21" y="5" width="1" height="1" fill="#262233"/><rect x="23" y="5" width="4" height="1" fill="#262233"/><rect x="7" y="6" width="1" height="1" fill="#262233"/><rect x="8" y="6" width="2" height="1" fill="#ffd23f"/><rect x="10" y="6" width="3" height="1" fill="#262233"/><rect x="13" y="6" width="8" height="1" fill="#ffd23f"/><rect x="21" y="6" width="3" height="1" fill="#262233"/><rect x="24" y="6" width="2" height="1" fill="#ffd23f"/><rect x="26" y="6" width="1" height="1" fill="#262233"/><rect x="7" y="7" width="1" height="1" fill="#262233"/><rect x="8" y="7" width="16" height="1" fill="#ffd23f"/><rect x="24" y="7" width="1" height="1" fill="#ffffff"/><rect x="25" y="7" width="1" height="1" fill="#ffd23f"/><rect x="26" y="7" width="1" height="1" fill="#262233"/><rect x="7" y="8" width="1" height="1" fill="#262233"/><rect x="8" y="8" width="1" height="1" fill="#ffd23f"/><rect x="9" y="8" width="1" height="1" fill="#ffffff"/><rect x="10" y="8" width="13" height="1" fill="#ffd23f"/><rect x="23" y="8" width="3" height="1" fill="#ffffff"/><rect x="26" y="8" width="1" height="1" fill="#262233"/><rect x="3" y="9" width="5" height="1" fill="#262233"/><rect x="8" y="9" width="3" height="1" fill="#ffffff"/><rect x="11" y="9" width="13" height="1" fill="#ffd23f"/><rect x="24" y="9" width="1" height="1" fill="#ffffff"/><rect x="25" y="9" width="1" height="1" fill="#ffd23f"/><rect x="26" y="9" width="5" height="1" fill="#262233"/><rect x="2" y="10" width="2" height="1" fill="#262233"/><rect x="4" y="10" width="5" height="1" fill="#ffd23f"/><rect x="9" y="10" width="1" height="1" fill="#ffffff"/><rect x="10" y="10" width="20" height="1" fill="#ffd23f"/><rect x="30" y="10" width="2" height="1" fill="#262233"/><rect x="3" y="11" width="1" height="1" fill="#262233"/><rect x="4" y="11" width="26" height="1" fill="#ffd23f"/><rect x="30" y="11" width="1" height="1" fill="#262233"/><rect x="3" y="12" width="2" height="1" fill="#262233"/><rect x="5" y="12" width="24" height="1" fill="#ffd23f"/><rect x="29" y="12" width="2" height="1" fill="#262233"/><rect x="4" y="13" width="1" height="1" fill="#262233"/><rect x="5" y="13" width="24" height="1" fill="#ffd23f"/><rect x="29" y="13" width="1" height="1" fill="#262233"/><rect x="4" y="14" width="1" height="1" fill="#262233"/><rect x="5" y="14" width="24" height="1" fill="#ffd23f"/><rect x="29" y="14" width="1" height="1" fill="#262233"/><rect x="2" y="15" width="3" height="1" fill="#262233"/><rect x="5" y="15" width="24" height="1" fill="#ffd23f"/><rect x="29" y="15" width="3" height="1" fill="#262233"/><rect x="1" y="16" width="2" height="1" fill="#262233"/><rect x="3" y="16" width="25" height="1" fill="#ffd23f"/><rect x="28" y="16" width="3" height="1" fill="#f5a623"/><rect x="31" y="16" width="2" height="1" fill="#262233"/><rect x="1" y="17" width="2" height="1" fill="#262233"/><rect x="3" y="17" width="24" height="1" fill="#ffd23f"/><rect x="27" y="17" width="4" height="1" fill="#f5a623"/><rect x="31" y="17" width="2" height="1" fill="#262233"/><rect x="2" y="18" width="3" height="1" fill="#262233"/><rect x="5" y="18" width="21" height="1" fill="#ffd23f"/><rect x="26" y="18" width="3" height="1" fill="#f5a623"/><rect x="29" y="18" width="3" height="1" fill="#262233"/><rect x="4" y="19" width="1" height="1" fill="#262233"/><rect x="5" y="19" width="20" height="1" fill="#ffd23f"/><rect x="25" y="19" width="4" height="1" fill="#f5a623"/><rect x="29" y="19" width="1" height="1" fill="#262233"/><rect x="4" y="20" width="1" height="1" fill="#262233"/><rect x="5" y="20" width="19" height="1" fill="#ffd23f"/><rect x="24" y="20" width="5" height="1" fill="#f5a623"/><rect x="29" y="20" width="1" height="1" fill="#262233"/><rect x="3" y="21" width="2" height="1" fill="#262233"/><rect x="5" y="21" width="3" height="1" fill="#ffd23f"/><rect x="8" y="21" width="1" height="1" fill="#ffffff"/><rect x="9" y="21" width="14" height="1" fill="#ffd23f"/><rect x="23" y="21" width="6" height="1" fill="#f5a623"/><rect x="29" y="21" width="2" height="1" fill="#262233"/><rect x="3" y="22" width="1" height="1" fill="#262233"/><rect x="4" y="22" width="3" height="1" fill="#ffd23f"/><rect x="7" y="22" width="3" height="1" fill="#ffffff"/><rect x="10" y="22" width="12" height="1" fill="#ffd23f"/><rect x="22" y="22" width="8" height="1" fill="#f5a623"/><rect x="30" y="22" width="1" height="1" fill="#262233"/><rect x="2" y="23" width="2" height="1" fill="#262233"/><rect x="4" y="23" width="4" height="1" fill="#ffd23f"/><rect x="8" y="23" width="1" height="1" fill="#ffffff"/><rect x="9" y="23" width="12" height="1" fill="#ffd23f"/><rect x="21" y="23" width="9" height="1" fill="#f5a623"/><rect x="30" y="23" width="2" height="1" fill="#262233"/><rect x="3" y="24" width="5" height="1" fill="#262233"/><rect x="8" y="24" width="12" height="1" fill="#ffd23f"/><rect x="20" y="24" width="6" height="1" fill="#f5a623"/><rect x="26" y="24" width="5" height="1" fill="#262233"/><rect x="7" y="25" width="1" height="1" fill="#262233"/><rect x="8" y="25" width="11" height="1" fill="#ffd23f"/><rect x="19" y="25" width="7" height="1" fill="#f5a623"/><rect x="26" y="25" width="1" height="1" fill="#262233"/><rect x="7" y="26" width="1" height="1" fill="#262233"/><rect x="8" y="26" width="10" height="1" fill="#ffd23f"/><rect x="18" y="26" width="8" height="1" fill="#f5a623"/><rect x="26" y="26" width="1" height="1" fill="#262233"/><rect x="7" y="27" width="1" height="1" fill="#262233"/><rect x="8" y="27" width="2" height="1" fill="#ffd23f"/><rect x="10" y="27" width="3" height="1" fill="#262233"/><rect x="13" y="27" width="4" height="1" fill="#ffd23f"/><rect x="17" y="27" width="4" height="1" fill="#f5a623"/><rect x="21" y="27" width="3" height="1" fill="#262233"/><rect x="24" y="27" width="2" height="1" fill="#f5a623"/><rect x="26" y="27" width="1" height="1" fill="#262233"/><rect x="7" y="28" width="4" height="1" fill="#262233"/><rect x="12" y="28" width="1" height="1" fill="#262233"/><rect x="13" y="28" width="3" height="1" fill="#ffd23f"/><rect x="16" y="28" width="5" height="1" fill="#f5a623"/><rect x="21" y="28" width="1" height="1" fill="#262233"/><rect x="23" y="28" width="4" height="1" fill="#262233"/><rect x="7" y="29" width="2" height="1" fill="#262233"/><rect x="12" y="29" width="1" height="1" fill="#262233"/><rect x="13" y="29" width="2" height="1" fill="#ffd23f"/><rect x="15" y="29" width="4" height="1" fill="#262233"/><rect x="19" y="29" width="2" height="1" fill="#f5a623"/><rect x="21" y="29" width="1" height="1" fill="#262233"/><rect x="25" y="29" width="2" height="1" fill="#262233"/><rect x="12" y="30" width="4" height="1" fill="#262233"/><rect x="18" y="30" width="4" height="1" fill="#262233"/><rect x="13" y="31" width="2" height="1" fill="#262233"/><rect x="19" y="31" width="2" height="1" fill="#262233"/><rect x="13" y="32" width="1" height="1" fill="#262233"/><rect x="20" y="32" width="1" height="1" fill="#262233"/></svg>