<svg xmlns="http://www.w3.org/2000/svg" viewBox="0 0 48 34" shape-rendering="crispEdges"><rect x="25" y="0" width="1" height="1" fill="#e23c28"/><rect x="14" y="1" width="1" height="1" fill="#e23c28"/><rect x="30" y="1" width="1" height="1" fill="#f59623"/><rect x="7" y="2" width="1" height="1" fill="#f59623"/><rect x="27" y="3" width="1" height="1" fill="#e23c28"/><rect x="40" y="3" width="1" height="1" fill="#e23c28"/><rect x="26" y="4" width="1" height="1" fill="#e23c28"/><rect x="27" y="4" width="1" height="1" fill="#ffd23f"/><rect x="28" y="4" width="1" height="1" fill="#e23c28"/><rect x="12" y="5" width="3" height="1" fill="#e23c28"/><rect x="20" y="5" width="2" height="1" fill="#e23c28"/><rect x="25" y="5" width="1" height="1" fill="#e23c28"/><rect x="26" y="5" width="2" height="1" fill="#ffd23f"/><rect x="28" y="5" width="1" height="1" fill="#e23c28"/><rect x="3" y="6" width="1" height="1" fill="#e23c28"/><rect x="12" y="6" width="1" height="1" fill="#e23c28"/><rect x="13" y="6" width="1" height="1" fill="#ffd23f"/><rect x="14" y="6" width="1" height="1" fill="#f59623"/><rect x="15" y="6" width="1" height="1" fill="#e23c28"/><rect x="19" y="6" width="1" height="1" fill="#e23c28"/><rect x="20" y="6" width="2" height="1" fill="#ffd23f"/><rect x="22" y="6" width="1" height="1" fill="#e23c28"/><rect x="25" y="6" width="1" height="1" fill="#e23c28"/><rect x="26" y="6" width="2" height="1" fill="#ffd23f"/><rect x="28" y="6" width="1" height="1" fill="#e23c28"/><rect x="33" y="6" width="2" height="1" fill="#e23c28"/><rect x="13" y="7" width="1" height="1" fill="#e23c28"/><rect x="14" y="7" width="2" height="1" fill="#ffd23f"/><rect x="16" y="7" width="2" height="1" fill="#e23c28"/><rect x="19" y="7" width="1" height="1" fill="#e23c28"/><rect x="20" y="7" width="3" height="1" fill="#ffd23f"/><rect x="23" y="7" width="2" height="1" fill="#e23c28"/><rect x="25" y="7" width="3" height="1" fill="#ffd23f"/><rect x="28" y="7" width="1" height="1" fill="#e23c28"/><rect x="31" y="7" width="3" height="1" fill="#e23c28"/><rect x="13" y="8" width="1" height="1" fill="#e23c28"/><rect x="14" y="8" width="4" height="1" fill="#ffd23f"/><rect x="18" y="8" width="1" height="1" fill="#e23c28"/><rect x="19" y="8" width="7" height="1" fill="#ffd23f"/><rect x="26" y="8" width="1" height="1" fill="#fffce6"/><rect x="27" y="8" width="1" height="1" fill="#ffd23f"/><rect x="28" y="8" width="1" height="1" fill="#f59623"/><rect x="29" y="8" width="2" height="1" fill="#e23c28"/><rect x="31" y="8" width="2" height="1" fill="#ffd23f"/><rect x="33" y="8" width="1" height="1" fill="#e23c28"/><rect x="40" y="8" width="3" height="1" fill="#e23c28"/><rect x="45" y="8" width="1" height="1" fill="#f59623"/><rect x="14" y="9" width="1" height="1" fill="#e23c28"/><rect x="15" y="9" width="1" height="1" fill="#ffd23f"/><rect x="16" y="9" width="2" height="1" fill="#fffce6"/><rect x="18" y="9" width="3" height="1" fill="#ffd23f"/><rect x="21" y="9" width="2" height="1" fill="#fffce6"/><rect x="23" y="9" width="2" height="1" fill="#ffd23f"/><rect x="25" y="9" width="2" height="1" fill="#fffce6"/><rect x="27" y="9" width="6" height="1" fill="#ffd23f"/><rect x="33" y="9" width="1" height="1" fill="#e23c28"/><rect x="36" y="9" width="4" height="1" fill="#e23c28"/><rect x="40" y="9" width="1" height="1" fill="#ffd23f"/><rect x="41" y="9" width="1" height="1" fill="#e23c28"/><rect x="9" y="10" width="5" height="1" fill="#e23c28"/><rect x="14" y="10" width="2" height="1" fill="#ffd23f"/><rect x="16" y="10" width="4" height="1" fill="#fffce6"/><rect x="20" y="10" width="1" height="1" fill="#ffd23f"/><rect x="21" y="10" width="6" height="1" fill="#fffce6"/><rect x="27" y="10" width="2" height="1" fill="#ffd23f"/><rect x="29" y="10" width="2" height="1" fill="#fffce6"/><rect x="31" y="10" width="3" height="1" fill="#ffd23f"/><rect x="34" y="10" width="2" height="1" fill="#e23c28"/><rect x="36" y="10" width="3" height="1" fill="#ffd23f"/><rect x="39" y="10" width="2" height="1" fill="#e23c28"/><rect x="9" y="11" width="1" height="1" fill="#e23c28"/><rect x="10" y="11" width="7" height="1" fill="#ffd23f"/><rect x="17" y="11" width="14" height="1" fill="#fffce6"/><rect x="31" y="11" width="3" height="1" fill="#ffd23f"/><rect x="34" y="11" width="3" height="1" fill="#fffce6"/><rect x="37" y="11" width="1" height="1" fill="#ffd23f"/><rect x="38" y="11" width="1" height="1" fill="#e23c28"/><rect x="10" y="12" width="1" height="1" fill="#e23c28"/><rect x="11" y="12" width="2" height="1" fill="#ffd23f"/><rect x="13" y="12" width="4" height="1" fill="#fffce6"/><rect x="17" y="12" width="1" height="1" fill="#ffd23f"/><rect x="18" y="12" width="12" height="1" fill="#fffce6"/><rect x="30" y="12" width="1" height="1" fill="#ffd23f"/><rect x="31" y="12" width="4" height="1" fill="#fffce6"/><rect x="35" y="12" width="2" height="1" fill="#ffd23f"/><rect x="37" y="12" width="1" height="1" fill="#e23c28"/><rect x="4" y="13" width="6" height="1" fill="#e23c28"/><rect x="10" y="13" width="1" height="1" fill="#f59623"/><rect x="11" y="13" width="3" height="1" fill="#ffd23f"/><rect x="14" y="13" width="20" height="1" fill="#fffce6"/><rect x="34" y="13" width="3" height="1" fill="#ffd23f"/><rect x="37" y="13" width="1" height="1" fill="#e23c28"/><rect x="1" y="14" width="1" height="1" fill="#e23c28"/><rect x="3" y="14" width="2" height="1" fill="#e23c28"/><rect x="5" y="14" width="7" height="1" fill="#ffd23f"/><rect x="12" y="14" width="2" height="1" fill="#fffce6"/><rect x="14" y="14" width="2" height="1" fill="#ffd23f"/><rect x="16" y="14" width="17" height="1" fill="#fffce6"/><rect x="33" y="14" width="5" height="1" fill="#ffd23f"/><rect x="38" y="14" width="5" height="1" fill="#e23c28"/><rect x="5" y="15" width="3" height="1" fill="#e23c28"/><rect x="8" y="15" width="2" height="1" fill="#ffd23f"/><rect x="10" y="15" width="27" height="1" fill="#fffce6"/><rect x="37" y="15" width="2" height="1" fill="#ffd23f"/><rect x="39" y="15" width="2" height="1" fill="#e23c28"/><rect x="8" y="16" width="1" height="1" fill="#e23c28"/><rect x="9" y="16" width="4" height="1" fill="#ffd23f"/><rect x="13" y="16" width="22" height="1" fill="#fffce6"/><rect x="35" y="16" width="3" height="1" fill="#ffd23f"/><rect x="38" y="16" width="1" height="1" fill="#e23c28"/><rect x="9" y="17" width="1" height="1" fill="#e23c28"/><rect x="10" y="17" width="4" height="1" fill="#ffd23f"/><rect x="14" y="17" width="21" height="1" fill="#fffce6"/><rect x="35" y="17" width="4" height="1" fill="#ffd23f"/><rect x="39" y="17" width="1" height="1" fill="#e23c28"/><rect x="7" y="18" width="2" height="1" fill="#e23c28"/><rect x="9" y="18" width="3" height="1" fill="#ffd23f"/><rect x="12" y="18" width="26" height="1" fill="#fffce6"/><rect x="38" y="18" width="2" height="1" fill="#ffd23f"/><rect x="40" y="18" width="3" height="1" fill="#e23c28"/><rect x="46" y="18" width="1" height="1" fill="#e23c28"/><rect x="6" y="19" width="5" height="1" fill="#e23c28"/><rect x="11" y="19" width="4" height="1" fill="#ffd23f"/><rect x="15" y="19" width="17" height="1" fill="#fffce6"/><rect x="32" y="19" width="2" height="1" fill="#ffd23f"/><rect x="34" y="19" width="2" height="1" fill="#fffce6"/><rect x="36" y="19" width="7" height="1" fill="#ffd23f"/><rect x="43" y="19" width="2" height="1" fill="#e23c28"/><rect x="11" y="20" width="1" height="1" fill="#e23c28"/><rect x="12" y="20" width="2" height="1" fill="#ffd23f"/><rect x="14" y="20" width="20" height="1" fill="#fffce6"/><rect x="34" y="20" width="3" height="1" fill="#ffd23f"/><rect x="37" y="20" width="7" height="1" fill="#e23c28"/><rect x="10" y="21" width="1" height="1" fill="#e23c28"/><rect x="11" y="21" width="1" height="1" fill="#f59623"/><rect x="12" y="21" width="1" height="1" fill="#ffd23f"/><rect x="13" y="21" width="4" height="1" fill="#fffce6"/><rect x="17" y="21" width="1" height="1" fill="#ffd23f"/><rect x="18" y="21" width="12" height="1" fill="#fffce6"/><rect x="30" y="21" width="1" height="1" fill="#ffd23f"/><rect x="31" y="21" width="3" height="1" fill="#fffce6"/><rect x="34" y="21" width="2" height="1" fill="#ffd23f"/><rect x="36" y="21" width="1" height="1" fill="#e23c28"/><rect x="9" y="22" width="1" height="1" fill="#e23c28"/><rect x="10" y="22" width="1" height="1" fill="#f59623"/><rect x="11" y="22" width="1" height="1" fill="#ffd23f"/><rect x="12" y="22" width="1" height="1" fill="#fffce6"/><rect x="13" y="22" width="4" height="1" fill="#ffd23f"/><rect x="17" y="22" width="14" height="1" fill="#fffce6"/><rect x="31" y="22" width="6" height="1" fill="#ffd23f"/><rect x="37" y="22" width="1" height="1" fill="#e23c28"/><rect x="8" y="23" width="1" height="1" fill="#e23c28"/><rect x="9" y="23" width="2" height="1" fill="#ffd23f"/><rect x="11" y="23" width="3" height="1" fill="#e23c28"/><rect x="14" y="23" width="3" height="1" fill="#ffd23f"/><rect x="17" y="23" width="2" height="1" fill="#fffce6"/><rect x="19" y="23" width="1" height="1" fill="#ffd23f"/><rect x="20" y="23" width="7" height="1" fill="#fffce6"/><rect x="27" y="23" width="1" height="1" fill="#ffd23f"/><rect x="28" y="23" width="4" height="1" fill="#fffce6"/><rect x="32" y="23" width="2" height="1" fill="#ffd23f"/><rect x="34" y="23" width="5" height="1" fill="#e23c28"/><rect x="2" y="24" width="1" height="1" fill="#f59623"/><rect x="7" y="24" width="4" height="1" fill="#e23c28"/><rect x="14" y="24" width="1" height="1" fill="#e23c28"/><rect x="15" y="24" width="5" height="1" fill="#ffd23f"/><rect x="20" y="24" width="3" height="1" fill="#fffce6"/><rect x="23" y="24" width="2" height="1" fill="#ffd23f"/><rect x="25" y="24" width="2" height="1" fill="#fffce6"/><rect x="27" y="24" width="3" height="1" fill="#ffd23f"/><rect x="30" y="24" width="2" height="1" fill="#fffce6"/><rect x="32" y="24" width="1" height="1" fill="#ffd23f"/><rect x="33" y="24" width="1" height="1" fill="#e23c28"/><rect x="14" y="25" width="1" height="1" fill="#e23c28"/><rect x="15" y="25" width="2" height="1" fill="#ffd23f"/><rect x="17" y="25" width="2" height="1" fill="#e23c28"/><rect x="19" y="25" width="1" height="1" fill="#f59623"/><rect x="20" y="25" width="3" height="1" fill="#fffce6"/><rect x="23" y="25" width="6" height="1" fill="#ffd23f"/><rect x="29" y="25" width="1" height="1" fill="#e23c28"/><rect x="30" y="25" width="4" height="1" fill="#ffd23f"/><rect x="34" y="25" width="1" height="1" fill="#e23c28"/><rect x="13" y="26" width="1" height="1" fill="#e23c28"/><rect x="14" y="26" width="1" height="1" fill="#ffd23f"/><rect x="15" y="26" width="2" height="1" fill="#e23c28"/><rect x="19" y="26" width="1" height="1" fill="#e23c28"/><rect x="20" y="26" width="1" height="1" fill="#ffd23f"/><rect x="21" y="26" width="1" height="1" fill="#fffce6"/><rect x="22" y="26" width="1" height="1" fill="#ffd23f"/><rect x="23" y="26" width="2" height="1" fill="#e23c28"/><rect x="25" y="26" width="3" height="1" fill="#ffd23f"/><rect x="28" y="26" width="1" height="1" fill="#e23c28"/><rect x="30" y="26" width="2" height="1" fill="#e23c28"/><rect x="32" y="26" width="2" height="1" fill="#ffd23f"/><rect x="34" y="26" width="1" height="1" fill="#e23c28"/><rect x="13" y="27" width="2" height="1" fill="#e23c28"/><rect x="19" y="27" width="1" height="1" fill="#e23c28"/><rect x="20" y="27" width="2" height="1" fill="#ffd23f"/><rect x="22" y="27" width="1" height="1" fill="#e23c28"/><rect x="25" y="27" width="1" height="1" fill="#e23c28"/><rect x="26" y="27" width="2" height="1" fill="#ffd23f"/><rect x="28" y="27" width="1" height="1" fill="#e23c28"/><rect x="32" y="27" width="2" height="1" fill="#e23c28"/><rect x="34" y="27" width="1" height="1" fill="#ffd23f"/><rect x="35" y="27" width="1" height="1" fill="#e23c28"/><rect x="43" y="27" width="1" height="1" fill="#f59623"/><rect x="19" y="28" width="1" height="1" fill="#e23c28"/><rect x="20" y="28" width="2" height="1" fill="#ffd23f"/><rect x="22" y="28" width="1" height="1" fill="#e23c28"/><rect x="26" y="28" width="2" height="1" fill="#e23c28"/><rect x="34" y="28" width="2" height="1" fill="#e23c28"/><rect x="19" y="29" width="1" height="1" fill="#e23c28"/><rect x="20" y="29" width="1" height="1" fill="#ffd23f"/><rect x="21" y="29" width="1" height="1" fill="#e23c28"/><rect x="19" y="30" width="1" height="1" fill="#e23c28"/><rect x="20" y="30" width="1" height="1" fill="#ffd23f"/><rect x="21" y="30" width="1" height="1" fill="#e23c28"/><rect x="10" y="31" width="1" height="1" fill="#e23c28"/><rect x="19" y="31" width="2" height="1" fill="#e23c28"/><rect x="19" y="32" width="1" height="1" fill="#e23c28"/><rect x="36" y="32" width="1" height="1" fill="#e23c28"/><rect x="22" y="33" width="1" height="1" fill="#f59623"/></svg>