<svg xmlns="http://www.w3.org/2000/svg" viewBox="0 0 38 38" shape-rendering="crispEdges"><rect x="17" y="0" width="3" height="1" fill="#040204"/><rect x="16" y="1" width="1" height="1" fill="#040204"/><rect x="17" y="1" width="1" height="1" fill="#5d5604"/><rect x="18" y="1" width="1" height="1" fill="#9c9c04"/><rect x="19" y="1" width="1" height="1" fill="#8b9a05"/><rect x="20" y="1" width="1" height="1" fill="#040204"/><rect x="16" y="2" width="1" height="1" fill="#040204"/><rect x="17" y="2" width="1" height="1" fill="#5b6208"/><rect x="18" y="2" width="2" height="1" fill="#9c9c04"/><rect x="20" y="2" width="1" height="1" fill="#040204"/><rect x="16" y="3" width="1" height="1" fill="#040204"/><rect x="17" y="3" width="1" height="1" fill="#7d8405"/><rect x="18" y="3" width="1" height="1" fill="#c3c50a"/><rect x="19" y="3" width="1" height="1" fill="#9c9c04"/><rect x="20" y="3" width="2" height="1" fill="#040204"/><rect x="15" y="4" width="1" height="1" fill="#141314"/><rect x="16" y="4" width="1" height="1" fill="#040204"/><rect x="17" y="4" width="1" height="1" fill="#9c9c04"/><rect x="18" y="4" width="1" height="1" fill="#fcfe04"/><rect x="19" y="4" width="1" height="1" fill="#f7fd17"/><rect x="20" y="4" width="1" height="1" fill="#bcbe0c"/><rect x="21" y="4" width="1" height="1" fill="#040204"/><rect x="15" y="5" width="1" height="1" fill="#040204"/><rect x="16" y="5" width="1" height="1" fill="#b4ae09"/><rect x="17" y="5" width="1" height="1" fill="#cfda0a"/><rect x="18" y="5" width="1" height="1" fill="#fcfe04"/><rect x="19" y="5" width="1" height="1" fill="#f4f507"/><rect x="20" y="5" width="1" height="1" fill="#c4cc06"/><rect x="21" y="5" width="1" height="1" fill="#040204"/><rect x="22" y="5" width="1" height="1" fill="#6c6c6c"/><rect x="15" y="6" width="1" height="1" fill="#040204"/><rect x="16" y="6" width="4" height="1" fill="#fcfe04"/><rect x="20" y="6" width="1" height="1" fill="#d4d305"/><rect x="21" y="6" width="1" height="1" fill="#121404"/><rect x="22" y="6" width="1" height="1" fill="#040204"/><rect x="15" y="7" width="1" height="1" fill="#040204"/><rect x="16" y="7" width="1" height="1" fill="#ecfc11"/><rect x="17" y="7" width="2" height="1" fill="#fcfe04"/><rect x="19" y="7" width="2" height="1" fill="#f4f507"/><rect x="21" y="7" width="1" height="1" fill="#ccca04"/><rect x="22" y="7" width="1" height="1" fill="#040204"/><rect x="2" y="8" width="3" height="1" fill="#040204"/><rect x="14" y="8" width="3" height="1" fill="#040204"/><rect x="17" y="8" width="1" height="1" fill="#9e9604"/><rect x="18" y="8" width="1" height="1" fill="#f4f434"/><rect x="19" y="8" width="4" height="1" fill="#040204"/><rect x="32" y="8" width="3" height="1" fill="#040204"/><rect x="1" y="9" width="1" height="1" fill="#040204"/><rect x="2" y="9" width="2" height="1" fill="#fcfefc"/><rect x="4" y="9" width="1" height="1" fill="#0c0c09"/><rect x="5" y="9" width="2" height="1" fill="#040204"/><rect x="13" y="9" width="1" height="1" fill="#040204"/><rect x="14" y="9" width="3" height="1" fill="#fcfefc"/><rect x="17" y="9" width="1" height="1" fill="#646664"/><rect x="18" y="9" width="1" height="1" fill="#040204"/><rect x="19" y="9" width="2" height="1" fill="#fcfefc"/><rect x="21" y="9" width="1" height="1" fill="#f5f5f5"/><rect x="22" y="9" width="2" height="1" fill="#040204"/><rect x="31" y="9" width="2" height="1" fill="#040204"/><rect x="33" y="9" width="2" height="1" fill="#fcfefc"/><rect x="35" y="9" width="1" height="1" fill="#040204"/><rect x="1" y="10" width="1" height="1" fill="#040204"/><rect x="2" y="10" width="3" height="1" fill="#fcfefc"/><rect x="5" y="10" width="1" height="1" fill="#343534"/><rect x="6" y="10" width="1" height="1" fill="#040204"/><rect x="13" y="10" width="1" height="1" fill="#040204"/><rect x="14" y="10" width="1" height="1" fill="#fcfefc"/><rect x="15" y="10" width="1" height="1" fill="#040204"/><rect x="16" y="10" width="1" height="1" fill="#fcfefc"/><rect x="17" y="10" width="1" height="1" fill="#646664"/><rect x="18" y="10" width="1" height="1" fill="#040204"/><rect x="19" y="10" width="1" height="1" fill="#fcfefc"/><rect x="20" y="10" width="1" height="1" fill="#040204"/><rect x="21" y="10" width="1" height="1" fill="#fcfefc"/><rect x="22" y="10" width="2" height="1" fill="#040204"/><rect x="31" y="10" width="1" height="1" fill="#040204"/><rect x="32" y="10" width="3" height="1" fill="#fcfefc"/><rect x="35" y="10" width="1" height="1" fill="#040204"/><rect x="1" y="11" width="1" height="1" fill="#040204"/><rect x="2" y="11" width="2" height="1" fill="#fcfefc"/><rect x="4" y="11" width="3" height="1" fill="#040204"/><rect x="13" y="11" width="1" height="1" fill="#040204"/><rect x="14" y="11" width="3" height="1" fill="#fcfefc"/><rect x="17" y="11" width="1" height="1" fill="#5c5b5c"/><rect x="18" y="11" width="1" height="1" fill="#040204"/><rect x="19" y="11" width="3" height="1" fill="#fcfefc"/><rect x="22" y="11" width="2" height="1" fill="#040204"/><rect x="31" y="11" width="2" height="1" fill="#040204"/><rect x="33" y="11" width="2" height="1" fill="#fcfefc"/><rect x="35" y="11" width="1" height="1" fill="#040204"/><rect x="2" y="12" width="5" height="1" fill="#040204"/><rect x="14" y="12" width="3" height="1" fill="#040204"/><rect x="17" y="12" width="1" height="1" fill="#9c9c04"/><rect x="18" y="12" width="1" height="1" fill="#e2ed36"/><rect x="19" y="12" width="3" height="1" fill="#040204"/><rect x="22" y="12" width="1" height="1" fill="#ccca04"/><rect x="23" y="12" width="1" height="1" fill="#040204"/><rect x="31" y="12" width="4" height="1" fill="#040204"/><rect x="5" y="13" width="1" height="1" fill="#444444"/><rect x="6" y="13" width="3" height="1" fill="#040204"/><rect x="14" y="13" width="1" height="1" fill="#040204"/><rect x="15" y="13" width="6" height="1" fill="#fcfe04"/><rect x="21" y="13" width="1" height="1" fill="#9c9c04"/><rect x="22" y="13" width="2" height="1" fill="#040204"/><rect x="28" y="13" width="4" height="1" fill="#040204"/><rect x="8" y="14" width="3" height="1" fill="#040204"/><rect x="14" y="14" width="7" height="1" fill="#040204"/><rect x="21" y="14" width="1" height="1" fill="#db0605"/><rect x="22" y="14" width="2" height="1" fill="#040204"/><rect x="26" y="14" width="3" height="1" fill="#040204"/><rect x="29" y="14" width="1" height="1" fill="#5c5b5c"/><rect x="10" y="15" width="3" height="1" fill="#040204"/><rect x="14" y="15" width="1" height="1" fill="#040204"/><rect x="15" y="15" width="6" height="1" fill="#db0605"/><rect x="21" y="15" width="1" height="1" fill="#040204"/><rect x="22" y="15" width="1" height="1" fill="#c4cc06"/><rect x="23" y="15" width="1" height="1" fill="#040204"/><rect x="25" y="15" width="2" height="1" fill="#040204"/><rect x="12" y="16" width="4" height="1" fill="#040204"/><rect x="16" y="16" width="4" height="1" fill="#db0605"/><rect x="20" y="16" width="1" height="1" fill="#040204"/><rect x="21" y="16" width="1" height="1" fill="#e4ec0f"/><rect x="22" y="16" width="1" height="1" fill="#cdce05"/><rect x="23" y="16" width="3" height="1" fill="#040204"/><rect x="14" y="17" width="1" height="1" fill="#040204"/><rect x="15" y="17" width="1" height="1" fill="#646d06"/><rect x="16" y="17" width="1" height="1" fill="#79080a"/><rect x="17" y="17" width="1" height="1" fill="#840706"/><rect x="18" y="17" width="1" height="1" fill="#ac0506"/><rect x="19" y="17" width="1" height="1" fill="#840706"/><rect x="20" y="17" width="1" height="1" fill="#6f6e05"/><rect x="21" y="17" width="1" height="1" fill="#fcfe04"/><rect x="22" y="17" width="1" height="1" fill="#cdce05"/><rect x="23" y="17" width="1" height="1" fill="#040204"/><rect x="14" y="18" width="1" height="1" fill="#040204"/><rect x="15" y="18" width="1" height="1" fill="#fcfe04"/><rect x="16" y="18" width="4" height="1" fill="#040204"/><rect x="20" y="18" width="1" height="1" fill="#fcfe04"/><rect x="21" y="18" width="1" height="1" fill="#f4f507"/><rect x="22" y="18" width="1" height="1" fill="#cdce05"/><rect x="23" y="18" width="1" height="1" fill="#040204"/><rect x="14" y="19" width="1" height="1" fill="#040204"/><rect x="15" y="19" width="3" height="1" fill="#fcfe04"/><rect x="18" y="19" width="1" height="1" fill="#f4f507"/><rect x="19" y="19" width="2" height="1" fill="#fcfe04"/><rect x="21" y="19" width="1" height="1" fill="#ccca04"/><rect x="22" y="19" width="1" height="1" fill="#c4cc06"/><rect x="23" y="19" width="1" height="1" fill="#040204"/><rect x="14" y="20" width="1" height="1" fill="#040204"/><rect x="15" y="20" width="3" height="1" fill="#fcfe04"/><rect x="18" y="20" width="1" height="1" fill="#f4f507"/><rect x="19" y="20" width="2" height="1" fill="#fcfe04"/><rect x="21" y="20" width="1" height="1" fill="#ccca04"/><rect x="22" y="20" width="1" height="1" fill="#cdce05"/><rect x="23" y="20" width="1" height="1" fill="#040204"/><rect x="14" y="21" width="1" height="1" fill="#040204"/><rect x="15" y="21" width="1" height="1" fill="#fcfe04"/><rect x="16" y="21" width="1" height="1" fill="#f4f507"/><rect x="17" y="21" width="4" height="1" fill="#fcfe04"/><rect x="21" y="21" width="1" height="1" fill="#ccca04"/><rect x="22" y="21" width="2" height="1" fill="#040204"/><rect x="14" y="22" width="1" height="1" fill="#040204"/><rect x="15" y="22" width="6" height="1" fill="#fcfe04"/><rect x="21" y="22" width="1" height="1" fill="#ccca04"/><rect x="22" y="22" width="1" height="1" fill="#040204"/><rect x="14" y="23" width="1" height="1" fill="#040204"/><rect x="15" y="23" width="3" height="1" fill="#fcfe04"/><rect x="18" y="23" width="1" height="1" fill="#f4f507"/><rect x="19" y="23" width="1" height="1" fill="#fcfe04"/><rect x="20" y="23" width="1" height="1" fill="#d4d305"/><rect x="21" y="23" width="1" height="1" fill="#ccca04"/><rect x="22" y="23" width="1" height="1" fill="#040204"/><rect x="14" y="24" width="1" height="1" fill="#040204"/><rect x="15" y="24" width="5" height="1" fill="#fcfe04"/><rect x="20" y="24" width="1" height="1" fill="#ccca04"/><rect x="21" y="24" width="2" height="1" fill="#040204"/><rect x="14" y="25" width="1" height="1" fill="#040204"/><rect x="15" y="25" width="2" height="1" fill="#fcfe04"/><rect x="17" y="25" width="1" height="1" fill="#f4f507"/><rect x="18" y="25" width="1" height="1" fill="#fcfe04"/><rect x="19" y="25" width="2" height="1" fill="#ccca04"/><rect x="21" y="25" width="1" height="1" fill="#040204"/><rect x="14" y="26" width="1" height="1" fill="#040204"/><rect x="15" y="26" width="2" height="1" fill="#fcfe04"/><rect x="17" y="26" width="1" height="1" fill="#e3e40e"/><rect x="18" y="26" width="2" height="1" fill="#ccca04"/><rect x="20" y="26" width="2" height="1" fill="#040204"/><rect x="14" y="27" width="1" height="1" fill="#040204"/><rect x="15" y="27" width="1" height="1" fill="#0c0c09"/><rect x="16" y="27" width="1" height="1" fill="#040204"/><rect x="17" y="27" width="1" height="1" fill="#7d8405"/><rect x="18" y="27" width="1" height="1" fill="#ccc92d"/><rect x="19" y="27" width="2" height="1" fill="#040204"/><rect x="15" y="28" width="2" height="1" fill="#040204"/><rect x="17" y="28" width="1" height="1" fill="#1c150a"/><rect x="18" y="28" width="1" height="1" fill="#2c2604"/><rect x="19" y="28" width="2" height="1" fill="#040204"/><rect x="15" y="29" width="6" height="1" fill="#040204"/><rect x="15" y="30" width="1" height="1" fill="#040204"/><rect x="20" y="30" width="1" height="1" fill="#040204"/><rect x="14" y="31" width="2" height="1" fill="#040204"/><rect x="20" y="31" width="2" height="1" fill="#040204"/><rect x="14" y="32" width="1" height="1" fill="#040204"/><rect x="21" y="32" width="1" height="1" fill="#040204"/><rect x="14" y="33" width="1" height="1" fill="#040204"/><rect x="21" y="33" width="1" height="1" fill="#040204"/><rect x="11" y="34" width="5" height="1" fill="#040204"/><rect x="20" y="34" width="5" height="1" fill="#040204"/><rect x="9" y="35" width="2" height="1" fill="#040204"/><rect x="11" y="35" width="4" height="1" fill="#fcfefc"/><rect x="15" y="35" width="1" height="1" fill="#040204"/><rect x="20" y="35" width="1" height="1" fill="#040204"/><rect x="21" y="35" width="1" height="1" fill="#f5f5f5"/><rect x="22" y="35" width="3" height="1" fill="#fcfefc"/><rect x="25" y="35" width="2" height="1" fill="#040204"/><rect x="9" y="36" width="1" height="1" fill="#040204"/><rect x="10" y="36" width="4" height="1" fill="#fcfefc"/><rect x="14" y="36" width="2" height="1" fill="#040204"/><rect x="20" y="36" width="2" height="1" fill="#040204"/><rect x="22" y="36" width="4" height="1" fill="#fcfefc"/><rect x="26" y="36" width="1" height="1" fill="#040204"/><rect x="9" y="37" width="5" height="1" fill="#040204"/><rect x="22" y="37" width="5" height="1" fill="#040204"/></svg>