<svg xmlns="http://www.w3.org/2000/svg" viewBox="0 0 800 50">
  <defs>
    <g id="ban" stroke="#111111" stroke-linejoin="round" stroke-linecap="round">
      <path d="M-2 -11 C 4 -7 7 1 5 9 C 4 13 0 16 -7 16 C -3 13 -1 8 -1 2 C -1 -4 -1 -8 -2 -11 Z" fill="#ffe135" stroke-width="2.4"/>
      <path d="M-2 -11 L0 -14.5" stroke="#5a3a12" stroke-width="2.8" fill="none"/>
    </g>
  </defs>
  <use href="#ban" transform="translate(45,24) rotate(15) scale(1)"/>
  <use href="#ban" transform="translate(110,33) rotate(-9) scale(0.85)"/>
  <use href="#ban" transform="translate(170,22) rotate(23) scale(1.18)"/>
  <use href="#ban" transform="translate(240,31) rotate(3) scale(0.95)"/>
  <use href="#ban" transform="translate(305,26) rotate(-19) scale(1.06)"/>
  <use href="#ban" transform="translate(372,35) rotate(11) scale(0.82)"/>
  <use href="#ban" transform="translate(438,23) rotate(26) scale(1.22)"/>
  <use href="#ban" transform="translate(505,33) rotate(-6) scale(0.9)"/>
  <use href="#ban" transform="translate(572,27) rotate(17) scale(1)"/>
  <use href="#ban" transform="translate(642,34) rotate(-15) scale(1.12)"/>
  <use href="#ban" transform="translate(710,24) rotate(7) scale(0.88)"/>
  <use href="#ban" transform="translate(765,31) rotate(21) scale(1)"/>
</svg>
