<svg xmlns="http://www.w3.org/2000/svg" width="133" height="40" fill="none" viewBox="0 0 120 33"><g clip-path="url(#clip0_1626_12792)"><path fill="#010101" d="M43.297-.18h-8.425v32.892h8.425zM46.731-.18v6.992h6.277c.369 0 .67.302.67.671v25.229h8.492V7.472c0-.369.302-.671.672-.671h6.276V-.18zM88.585-.18 84.658 9.91c-.224.582-1.063.56-1.253-.033L80.138-.17h-9.006l7.82 20.07c.269.683.403 1.4.403 2.127v10.684h8.48V22.027c0-.727.134-1.443.403-2.125L96.047-.18zM22.297 22.453a8.2 8.2 0 0 1-2.953 1.711 8.3 8.3 0 0 1-2.54.403c-.884 0-.582-.011-.861-.045a8.2 8.2 0 0 1-3.245-1.051 8.4 8.4 0 0 1-2.54-2.283 8.3 8.3 0 0 1-1.387-3.121 8.5 8.5 0 0 1-.179-1.7c0-.582.067-1.164.18-1.712a8.4 8.4 0 0 1 1.386-3.122 8.215 8.215 0 0 1 12.139-1.264 8.1 8.1 0 0 1 2.003 2.764l7.854-3.491a16.9 16.9 0 0 0-4.106-5.65A16.9 16.9 0 0 0 21.995.39a16 16 0 0 0-5.191-.85c-1.812 0-1.175.034-1.756.09a16.6 16.6 0 0 0-6.646 2.159 16.9 16.9 0 0 0-5.191 4.676 16.6 16.6 0 0 0-2.842 6.389A16.4 16.4 0 0 0 0 16.343a16.672 16.672 0 0 0 3.2 9.879 16.9 16.9 0 0 0 5.19 4.676 16.6 16.6 0 0 0 8.403 2.25 16.722 16.722 0 0 0 11.244-4.318 17.1 17.1 0 0 0 4.117-5.651L24.3 19.678a8.3 8.3 0 0 1-2.014 2.763"></path><path fill="#0061AF" d="M18.337 15.662a.746.746 0 0 0 0 1.364l.615.28L24.3 19.69a8.1 8.1 0 0 0 .705-3.345 8.3 8.3 0 0 0-.705-3.334l-5.348 2.383-.615.28zM101.014 32.745h3.636L100.589 16.4h-3.68l-4.062 16.345h3.636l.638-2.54h3.278l.638 2.54zm-3.188-5.403.928-3.726.929 3.726zM115.122 16.4l-2.226 10.27-2.227-10.27h-4.877v16.345h3.77V23.84l1.924 8.905h2.819l1.925-8.905v8.905H120V16.4z"></path></g></svg>